<svg id="Layer_1" data-name="Layer 1" xmlns="http://www.w3.org/2000/svg" viewBox="0 0 512 512"><defs><style>.cls-1{fill:#c02953;}</style></defs><title>Artboard 1</title><path class="cls-1" d="M500,176H440.12l-16.64-41.6A111.43,111.43,0,0,0,319.5,64h-127a111.47,111.47,0,0,0-104,70.4L71.87,176H12A12,12,0,0,0,.37,190.91l6,24A12,12,0,0,0,18,224H38.08A63.55,63.55,0,0,0,16,272v48a63.48,63.48,0,0,0,16,41.93V416a32,32,0,0,0,32,32H96a32,32,0,0,0,32-32V384H384v32a32,32,0,0,0,32,32h32a32,32,0,0,0,32-32V361.93A63.44,63.44,0,0,0,496,320V272a63.58,63.58,0,0,0-22.07-48H494a12,12,0,0,0,11.64-9.09l6-24A12,12,0,0,0,500,176ZM147.93,158.17A48,48,0,0,1,192.5,128h127a48,48,0,0,1,44.57,30.17L384,208H128ZM96,319.8c-19.2,0-32-12.76-32-31.9S76.8,256,96,256s48,28.71,48,47.85S115.2,319.8,96,319.8Zm320,0c-19.2,0-48,3.19-48-15.95S396.8,256,416,256s32,12.76,32,31.9S435.2,319.8,416,319.8Z"/></svg>